<svg id="Layer_2" data-name="Layer 2" xmlns="http://www.w3.org/2000/svg" viewBox="0 0 109.95 57.07"><defs><style>.cls-1{fill:#ef8856;}.cls-2{fill:#f9ae84;}</style></defs><title>bat2</title><path class="cls-1" d="M139.39,82.84c12.34,12.5,6.44,17.3,6.44,17.3l1.71,1.84c17.5,2.92,8.32,16.93,8.32,16.93l1.71,1.84a19.09,19.09,0,0,1,7.57,1.36L148.3,84.32C143.3,83.67,139.39,82.84,139.39,82.84Z" transform="translate(-139.39 -82.06)"/><path class="cls-2" d="M226.81,103.7c-4.36,8.84-33.56,14-33.45,12.57s2.94-9.58,2.94-9.58l-3.92,3a7.67,7.67,0,0,0-5.4-1.83l1.13-5.16c-8.17,10.33-9.93,9.22-9.93,9.22-10-9.19-9.19-29.81-9.19-29.81-2.32,3.83-12.85,3.27-20.69,2.26l16.84,37.79c10,4.26,8,17,8,17,6.81-7,21.81-5.19,21.81-5.19.63,1.48,3.53,2.21,3.53,2.21,16.57-18.81,25.05-8.88,25.05-8.88l3.35-.37c-.17-2.58,22.43-8.51,22.43-8.51C232.17,115.84,226.81,103.7,226.81,103.7Z" transform="translate(-139.39 -82.06)"/><path class="cls-1" d="M183.71,113.62l-1.39,3.6,3.12-2.55A1.31,1.31,0,0,0,183.71,113.62Z" transform="translate(-139.39 -82.06)"/><path class="cls-1" d="M187.75,115.67l-.12,3.82,2-3.42S188.7,115,187.75,115.67Z" transform="translate(-139.39 -82.06)"/></svg>