<svg id="Layer_1" data-name="Layer 1" xmlns="http://www.w3.org/2000/svg" viewBox="0 0 224.28 105.98"><defs><style>.cls-1{fill:#ef9b68;}.cls-2{fill:#db743a;}.cls-3{fill:none;}</style></defs><title>bat1</title><path class="cls-1" d="M250.7,49.57c1.6,18.43-43,52.94-44.29,50.42s-4.78-18.37-4.78-18.37L198,90c-7-1.15-11.11,1.78-11.11,1.78l-3.35-9.48c-3.39,24.24-7.53,24-7.53,24-26.52-6.21-46.22-40.87-46.22-40.87C129.67,79.07,80,93,80,93c33.9,9.58,28.72,22.72,28.72,22.72l4.8,1.51c32.9-10.76,31.54,20.44,31.54,20.44l4.8,1.51c24.76-12.93,38.67,4.54,43.51,12.65l10-9.27c.75-.74,1.52-1.45,2.32-2.14L242.93,106c5-9.18,10.83-13.07,15.78-14.58l38.62-35.68C269.22,62.6,250.7,49.57,250.7,49.57Z" transform="translate(-79.96 -49.57)"/><path class="cls-1" d="M272.58,17.39" transform="translate(-79.96 -49.57)"/><path class="cls-2" d="M186.58,104.28l2.22,7.84,1.11-7.86A2.26,2.26,0,0,0,186.58,104.28Z" transform="translate(-79.96 -49.57)"/><path class="cls-2" d="M196.9,103.91l2.23,7.85,1.1-7.87A2.26,2.26,0,0,0,196.9,103.91Z" transform="translate(-79.96 -49.57)"/><path class="cls-3" d="M205.68,140.41c-.8.69-1.57,1.4-2.32,2.14Z" transform="translate(-79.96 -49.57)"/><path class="cls-3" d="M242.93,106l15.78-14.58C253.76,92.93,247.89,96.82,242.93,106Z" transform="translate(-79.96 -49.57)"/><path class="cls-2" d="M227.26,127.62c2.58,1.87,8.28.49,8.28.49,1.9-9.57,4.49-16.74,7.39-22.11l-37.25,34.41C215.13,132.19,227.26,127.62,227.26,127.62Z" transform="translate(-79.96 -49.57)"/><path class="cls-2" d="M195.29,155.55c1.25-4.92,4.31-9.28,8.07-13l-10,9.27A33.35,33.35,0,0,1,195.29,155.55Z" transform="translate(-79.96 -49.57)"/><path class="cls-2" d="M304.23,53.72c-2.36.82-4.66,1.48-6.9,2L258.71,91.42a18.2,18.2,0,0,1,10.55-.17l5.34-3.6C271.67,83.57,304.23,53.72,304.23,53.72Z" transform="translate(-79.96 -49.57)"/></svg>