<svg id="Layer_1" data-name="Layer 1" xmlns="http://www.w3.org/2000/svg" viewBox="0 0 400 400"><defs><style>.cls-1{fill:#999;}.cls-2{fill:#e5a383;}.cls-3{fill:#c17a61;}.cls-4{fill:#543931;}.cls-5{fill:#17223b;}.cls-6{fill:#e42c64;}.cls-7{fill:#fff;}.cls-8{fill:#56331b;}.cls-9{fill:#444c38;}.cls-10{fill:#3a2515;stroke:#3a2515;stroke-miterlimit:10;stroke-width:0.25px;}.cls-11{fill:#c69c6d;}</style></defs><title>FaceIcon</title><rect class="cls-1" width="400" height="400"/><ellipse class="cls-2" cx="106.27" cy="210.8" rx="19.27" ry="19.64"/><ellipse class="cls-3" cx="106.27" cy="210.8" rx="12.57" ry="12.81"/><ellipse class="cls-2" cx="294.73" cy="215.16" rx="19.27" ry="19.64"/><ellipse class="cls-3" cx="294.73" cy="215.16" rx="12.57" ry="12.81"/><rect class="cls-4" x="104.13" y="86.47" width="192.74" height="264.53" rx="96.37"/><path class="cls-2" d="M236.22,315.42c-37.23-3.3-30.14-13-69.08.86-44.8,16-59.3-76.4-54.66-111.38,1.31-9.94,8.07-27.1,12.1-33.29,14.17-21.81,31.53-51.06,56.19-48.39,21.45,2.33,21.23,9.78,43.37,9,25.48-.87,40.42,27.9,52.85,50.4,3.54,6.39,7.46,18.39,7.45,27.85C284.38,243.78,279.06,319.23,236.22,315.42Z"/><path class="cls-4" d="M235.73,287.61C236.46,308.08,215,321,199,321.06s-37.65-9.08-39.1-28.24S178.65,260.2,196,258.47,235,267.14,235.73,287.61Z"/><path class="cls-5" d="M177,293.71a11,11,0,0,0,3.35,7.35c4-4.54,11.46-7.73,20.16-7.95S216.82,295.68,221,300a11,11,0,0,0,3-7.51,9.68,9.68,0,0,0-.87-3.7L177.64,290A9.75,9.75,0,0,0,177,293.71Z"/><ellipse class="cls-6" cx="200.27" cy="300.68" rx="20.69" ry="7.56" transform="translate(-7.71 5.28) rotate(-1.48)"/><path class="cls-7" d="M176.56,277.62l.31,12.38.77,0,0-.06,45.42-1.17s0,0,0,.06l.78,0-.31-12.38Z"/><rect class="cls-3" x="185.51" y="195.52" width="25.7" height="70.94" rx="12.85"/><rect class="cls-8" x="121.26" y="169.33" width="47.11" height="13.1" rx="6.55"/><rect class="cls-8" x="228.34" y="169.33" width="47.11" height="13.1" rx="6.55"/><path class="cls-9" d="M140.12,204.94c1-1.57,5.12-1.41,6.68-1.45a9.84,9.84,0,0,1,6.84,2.14c3.81,3,7.55-3.56,3.78-6.47-6.09-4.7-19.21-4.95-23.78,2-2.66,4,3.83,7.8,6.48,3.78Z"/><path class="cls-9" d="M247.19,204.94c1-1.57,5.12-1.41,6.69-1.45a9.8,9.8,0,0,1,6.83,2.14c3.82,3,7.56-3.56,3.79-6.47-6.1-4.7-19.21-4.95-23.78,2-2.66,4,3.83,7.8,6.47,3.78Z"/><path class="cls-4" d="M115.59,103c6.49-9.38,13.11-18.9,21.89-26.1a120.43,120.43,0,0,1,15.38-10.18c9.87-5.84,19.88-11.74,30.85-14.94,14.51-4.23,29.89-3.54,45-2.8l18.24.88c7.93.38,16,.81,23.37,3.9s13.87,9.41,15,17.41a14.89,14.89,0,0,0-6.72-.64l.94,2.65c6.41,8.13,11.93,17.14,15,27.1s3.41,21-.18,30.71c-.24.64-.58,1.36-1.23,1.52a2.11,2.11,0,0,1-1.35-.3L278.2,125.9l2.45,2.12a32.81,32.81,0,0,1,1,25.69,32,32,0,0,1-17.93,18.09L262,173.69a328.67,328.67,0,0,0-44.11-34.09,311.74,311.74,0,0,0-46.64-25.52c-15.63-6.8-37.72-17.64-54.19-8"/><ellipse class="cls-4" cx="131.97" cy="106.03" rx="36.41" ry="37.11"/><path class="cls-10" d="M174.61,94.56"/><path class="cls-11" d="M257.25,78.25a22.06,22.06,0,0,1,8.64-1.38,26.92,26.92,0,0,1,4.45.55,18.62,18.62,0,0,1,2.18.62,18.28,18.28,0,0,1,2.13.81A23.91,23.91,0,0,1,282.17,84a31.51,31.51,0,0,1,5.33,7.34,43,43,0,0,1,3.28,8.31,56.22,56.22,0,0,1,1.64,8.66,68.34,68.34,0,0,1-.25,17.33c-.86-5.71-1.63-11.34-2.83-16.82-.61-2.74-1.35-5.42-2.18-8.06-.5-1.28-.88-2.61-1.46-3.85l-.8-1.88L284,93.25a33,33,0,0,0-4.54-6.61,25.08,25.08,0,0,0-6.17-5,25.44,25.44,0,0,0-7.6-2.83A29.76,29.76,0,0,0,257.25,78.25Z"/><path class="cls-11" d="M265.71,121.44a39,39,0,0,1,6.81,11.19,34.35,34.35,0,0,1,2.71,13.12,24.67,24.67,0,0,1-1,6.85,19.69,19.69,0,0,1-3.19,6.19,18.88,18.88,0,0,1-2.34,2.55c-.43.37-.89.71-1.33,1.06a10.84,10.84,0,0,1-1.39,1,21.5,21.5,0,0,1-6.08,2.58,41,41,0,0,0,4.86-4.12,20.92,20.92,0,0,0,3.67-4.79,21.18,21.18,0,0,0,2.14-5.44,26.76,26.76,0,0,0,.65-5.88,47.53,47.53,0,0,0-1.69-12.11A126.32,126.32,0,0,0,265.71,121.44Z"/></svg>